<?xml version="1.0" standalone="no"?>
<!DOCTYPE svg PUBLIC "-//W3C//DTD SVG 1.1//EN" "http://www.w3.org/Graphics/SVG/1.1/DTD/svg11.dtd">
<svg xmlns="http://www.w3.org/2000/svg">
<metadata>Generated by Fontastic.me</metadata>
<defs>
<font id="hsbc-payroll" horiz-adv-x="512">
<font-face font-family="hsbc-payroll" units-per-em="512" ascent="480" descent="-32"/>
<missing-glyph horiz-adv-x="512" />

<glyph glyph-name="address" unicode="&#97;" d="M256 0c-121 154-181 263-181 329 0 101 82 183 181 183 99 0 181-82 181-183 0-66-60-175-181-329z m-2 418c-44 0-80-36-80-80 0-44 36-80 80-80 45 0 81 36 81 80 0 43-36 80-81 80z"/>
<glyph glyph-name="arrow-back" unicode="&#98;" d="M427 277l-261 0 120 120-30 30-171-171 171-171 30 30-120 120 261 0z"/>
<glyph glyph-name="boton-editar" unicode="&#100;" d="M0 0l128 48-80 80z m74 170l96-96 288 288-96 96z m419 323c-13 13-29 19-48 19-16 0-35-6-48-19l93-96c28 29 28 70 3 96z"/>
<glyph glyph-name="camera" unicode="&#101;" d="M324 256c0-38-30-68-68-68-38 0-68 30-68 68 0 38 30 68 68 68 38 0 68-30 68-68z m103 171l-69 0-38 42-128 0-38-42-69 0c-23 0-42-20-42-43l0-256c0-23 19-43 42-43l342 0c23 0 42 20 42 43l0 256c0 23-19 43-42 43z m-171-278c-60 0-107 47-107 107 0 60 47 107 107 107 60 0 107-47 107-107 0-60-47-107-107-107z"/>
<glyph glyph-name="card" unicode="&#99;" d="M31 420c-17 0-31-14-31-31l0-19 512 0 0 19c0 17-14 31-31 31z m-31-72l0-36 512 0 0 36c0 0-512 0-512 0z m0-61l0-164c0-17 14-31 31-31l450 0c17 0 31 14 31 31l0 164c0 0-512 0-512 0z m353-50c12 0 22-3 31-10 9 7 19 10 31 10 27 0 49-22 49-49 0-28-22-50-49-50-12 0-22 4-31 10-9-6-19-10-31-10-27 0-49 22-49 50 1 27 22 49 49 49z m0-24c-13 0-24-10-24-24 0-13 11-23 24-23 14 0 24 10 24 23 0 14-10 24-24 24z m62 0c-7 0-12-1-16-5 2-5 4-12 4-19 0-6-2-12-4-18 4-4 11-5 16-5 13 0 24 10 24 23 0 14-11 24-24 24z"/>
<glyph glyph-name="cell" unicode="&#102;" d="M416 512l-320 0c-6 0-11-5-11-10l0-492c0-5 5-10 11-10l320 0c6 0 11 5 11 10l0 492c0 5-5 10-11 10z m-160-486c-14 0-26 12-26 25 0 14 12 26 26 26 14 0 26-12 26-26 0-13-12-25-26-25z m119 76l-238 0 0 359 238 0z"/>
<glyph glyph-name="contact-phone" unicode="&#104;" d="M469 448l-426 0c-24 0-43-19-43-43l0-298c0-24 19-43 43-43l426 0c24 0 43 19 43 43l0 298c0 24-19 43-43 43z m-298-64c36 0 64-28 64-64 0-36-28-64-64-64-37 0-64 28-64 64 0 36 27 64 64 64z m128-256l-256 0 0 21c0 43 85 66 128 66 42 0 128-23 128-66z m81 85l34 0 34-42-43-43c-27 21-49 51-57 85-5 13-7 28-7 43 0 15 2 30 7 43 8 34 30 64 57 85l43-43-32-42-34 0c-4-13-7-28-7-43 0-15 0-30 5-43z"/>
<glyph glyph-name="content" unicode="&#105;" d="M405 469l-89 0c-9 26-32 43-60 43-28 0-51-17-60-43l-89 0c-24 0-43-19-43-42l0-342c0-23 19-42 43-42l298 0c24 0 43 19 43 42l0 342c0 23-19 42-43 42z m-149 0c11 0 21-10 21-21 0-11-10-21-21-21-11 0-21 10-21 21 0 11 10 21 21 21z m149-384l-298 0 0 342 42 0 0-64 214 0 0 64 42 0z m-268 237l238 0 0-38-238 0z m0-70l238 0 0-39-238 0z m0-71l238 0 0-38-238 0z"/>
<glyph glyph-name="edit" unicode="&#106;" d="M64 145l0-81 81 0 235 237-79 79z m378 248l-49 49c-9 8-22 8-30 0l-39-39 81-81 37 41c8 6 8 21 0 30z"/>
<glyph glyph-name="error" unicode="&#107;" d="M61 512l-61-61 195-195-195-195 61-61 195 195 195-195 61 61-195 195 195 195-61 61-195-195z"/>
<glyph glyph-name="error-1" unicode="&#108;" d="M256 469c-117 0-213-96-213-213 0-117 96-213 213-213 117 0 213 96 213 213 0 117-96 213-213 213z m21-320l-42 0 0 43 42 0z m0 86l-42 0 0 128 42 0z"/>
<glyph glyph-name="female" unicode="&#109;" d="M449 109l-41 144c-10-68-65-122-134-130l0-13c0-6-5-12-11-12l-14 0c-6 0-11 6-11 12l0 13c-70 8-125 65-134 136l-41-150c-7-26 3-50 22-50l343 0c18 0 28 24 21 50z m-51 179c-4 11-13 21-24 23-2 79-54 142-118 142-64 0-116-63-118-141-9-1-17-7-22-15-2-6-2-12-2-17 0-74 54-136 124-145l0 7c0 6 5 12 11 12l14 0c6 0 11-6 11-12l0-7c70 9 124 70 124 145 0 2 0 5 0 8z m-247 24c3 71 49 129 105 129 56 0 102-58 105-129 0 0-210 0-210 0z"/>
<glyph glyph-name="folder" unicode="&#110;" d="M3 373l506 0 0-303-506 0z m208 67l-157 0 0-50 207 0z"/>
<glyph glyph-name="graduate" unicode="&#111;" d="M93 228l0-93 163-88 163 88 0 93-163-88z m163 237l-256-139 256-140 209 114 0-160 47 0 0 186z"/>
<glyph glyph-name="help" unicode="&#112;" d="M256 469c-117 0-213-96-213-213 0-117 96-213 213-213 117 0 213 96 213 213 0 117-96 213-213 213z m21-362l-42 0 0 42 42 0z m45 166l-19-19c-15-17-26-30-26-62l-42 0 0 11c0 23 10 44 25 59l26 28c8 9 13 19 13 30 0 23-20 43-43 43-23 0-43-20-43-43l-42 0c0 47 38 85 85 85 47 0 85-38 85-85 0-19-8-36-19-47z"/>
<glyph glyph-name="ic-cel" unicode="&#113;" d="M449 512l-391 0c-5 0-10-5-10-10l0-492c0-5 5-10 10-10l391 0c5 0 10 5 10 10l0 492c0 5-4 10-10 10z m-195-486c-15 0-26 11-26 25 0 15 11 26 26 26 14 0 25-11 25-26 0-14-11-25-25-25z m154 76l-309 0 0 359 309 0z m-183 160c-4 0-7-1-10-4-2-1-3-4-3-8 0-6 4-10 13-10l-3-18-1-4c0-2-1-4-1-5 0-3 1-5 2-7 2-2 4-3 8-3 4 0 7 1 8 3 2 3 3 7 4 12l4 22 21 0-3-18c-1-4-2-7-2-9 0-3 1-5 3-7 1-2 4-3 7-3 3 0 5 1 6 3 2 1 3 3 4 4 0 3 1 6 1 8l5 22 14 0c4 0 8 1 10 3 2 2 3 5 3 7 0 4-1 6-3 8-2 3-6 4-10 4l-10 0 6 28 4 0c4 0 8 0 10 3 2 1 3 5 3 8 0 7-5 10-13 10l3 18 1 2c0 1 0 3 0 4 0 2 0 3 0 4 0 3 0 6-2 7-2 2-4 3-8 3-3 0-5-1-6-3-2-1-3-3-4-4 0-3 0-5-1-8l-5-22-21 0 5 16c1 6 2 9 2 10 0 2-1 4-3 7-1 1-4 2-8 2-2 0-4-1-5-1-2-2-4-4-4-5 0-3-1-5-2-9l-5-22-14 0c-4 0-7 0-10-3-2-1-3-5-3-8 0-3 1-5 3-7 3-2 6-3 10-3l9 0-5-28-4 0z m31 27l21 0-5-27-21 0z"/>
<glyph glyph-name="ic-cuenta" unicode="&#114;" d="M400 88c12 0 24 10 24 24 0 11-10 23-24 23-4 0-11-2-14-5 3-4 3-11 3-16 0-7 0-12-3-16 3-7 10-10 14-10z m-200 252c2-3 7-5 12-5 4 0 9 2 11 5 14 11 26 25 40 39 7 7 5 17 0 21-7 7-16 7-21 0l-12-11 0 72c0 0 0 0 0 2 0 9-7 16-16 14-9 0-16-7-14-16l0-72-11 11c-7 7-17 7-21 0-7-7-7-16 0-21 7-14 18-28 32-39z m70 107c7-7 16-7 21 0l12 11 0-72c0-9 7-16 16-16 9 0 16 7 16 16l0 72 12-11c7-7 16-7 21 0 7 7 4 16 0 21-14 11-26 28-40 39 2 3-2 5-7 5-4 0-9-2-11-5-14-11-26-25-40-39-5-7-5-17 0-21z m-247-191l466 0 0-33-466 0z m438 65l-410 0c-16 0-28-11-28-28l0-16 466 0 0 16c0 17-12 28-28 28z m-438-270c0-16 12-28 28-28l410 0c16 0 28 12 28 28l0 149-466 0z m321 105c12 0 21-5 28-9 7 7 19 9 28 9 24 0 45-21 45-44 0-26-21-45-45-45-11 0-21 5-28 10-7-7-18-10-28-10-25 0-44 21-44 45 0 23 21 44 44 44z m0-68c12 0 21 10 24 21 0 12-10 21-21 24-12 0-21-10-24-21 0-14 10-24 21-24z"/>
<glyph glyph-name="ic-info-black-24px" unicode="&#115;" d="M256 469c-117 0-213-96-213-213 0-117 96-213 213-213 117 0 213 96 213 213 0 117-96 213-213 213z m21-320l-42 0 0 128 42 0z m0 171l-42 0 0 43 42 0z"/>
<glyph glyph-name="ic-ingresos" unicode="&#116;" d="M110 402c38 38 92 61 146 61 15 0 28-2 41-5 0 0-3 3-3 3-33 33-79 51-122 51-47 0-90-18-123-51-67-67-67-177 0-246l2-3c-13 70 10 141 59 190z m82-82c38 38 92 61 146 61 15 0 28-2 41-5 0 0-3 3-3 3-33 33-76 51-123 51-46 0-89-18-122-51-67-67-67-177 0-246l2-2c-10 69 10 140 59 189z m269-23c-33 33-77 51-123 51-46 0-90-18-123-51-67-67-67-177 0-246 67-66 177-66 246 0 33 33 51 77 51 123 0 46-18 90-51 123z m-100-210l-5 0 0-20c0-6-3-8-8-8l-20 0c-5 0-8 2-8 8l0 17-5 0c-15 3-31 6-41 13-3 3-5 8-3 11l8 17c3 3 5 6 8 6 2 0 2 0 5 0 13-6 28-11 43-11 18 0 31 8 31 18 0 5-2 13-31 23-28 11-59 23-59 54 0 23 16 41 44 49l5 0 0 18c0 5 5 7 8 7l20 0c5 0 8-2 8-7l0-18 5 0c13-3 23-5 33-8 3 0 3-3 5-5 0-3 0-5 0-5l-7-18c-3-3-5-5-8-5 0 0-2 0-2 0-13 5-23 7-39 7-18 0-25-7-25-12 0-8 7-13 33-21 28-10 56-23 56-56-5-21-18-44-51-54z"/>
<glyph glyph-name="ic-masculino" unicode="&#117;" d="M242 317l42 0 32 47-31 47-42 0-32-46z m0-19l-62-199 81-61 81 61-59 201c0-2-41-2-41-2z m130 176l-80-45 50-73 55 95z m-139-46l-81 46-24-23 54-95z"/>
<glyph glyph-name="id" unicode="&#118;" d="M469 448l-426 0c-24 0-43-19-43-43l0-298c0-24 19-43 43-43l426 0c24 0 43 19 43 43l0 298c0 24-19 43-43 43z m-298-64c36 0 64-28 64-64 0-36-28-64-64-64-37 0-64 28-64 64 0 36 27 64 64 64z m128-256l-256 0 0 21c0 43 85 66 128 66 42 0 128-23 128-66z m85 64l64 0 0-43-64 0z m-43 85l107 0 0-42-107 0z m0 86l107 0 0-43-107 0z"/>
<glyph glyph-name="income" unicode="&#119;" d="M242 341l0 4c0 3-1 5-5 5-3 0-5-2-5-5l0-4c-7-1-14-8-14-17 0-8 6-15 14-17l0-17c-3 2-7 5-8 7-2 2-4 2-7 0-2-2-2-3 0-7 1-2 7-8 15-10l0-4c0-3 2-5 5-5 4 0 5 2 5 5l0 2c7 2 14 9 14 17 0 9-5 16-14 17l0 17c4-1 7-3 9-5 2-1 5-1 7 0 1 2 1 5 0 7-2 2-9 9-16 10z m-10-24c-3 2-3 4-3 7 0 4 1 5 3 7z m14-18c0-4-2-5-4-7l0 15c2-3 4-7 4-8z m-69 51c-3 0-6 2-10 2-22 0-41-19-41-41 0-23 19-41 41-41 5 0 9 0 14 1-9 12-14 26-14 40 0 13 4 27 10 39z m284 15l0 2c-2 3-4 5-5 8l-128 130c-2 2-4 4-5 4l-9 3-203 0c-32 0-60-27-60-60l0-392c0-33 28-60 60-60l290 0c32 0 60 27 60 60z m-133 79l66-69-49 0c-9 0-17 7-17 18z m-127-191c-10-6-20-9-34-9-37 0-66 31-66 67 0 37 30 66 66 66 12 0 22-3 33-8 10 6 22 12 36 12 37 0 68-31 68-69 0-37-31-68-68-68-14-2-26 2-35 9z m202-186l-80 0 0 18 80 0c0 0 0-18 0-18z m0 51l-152 0 0 20 152 0z m0 51l-152 0 0 19 152 0z"/>
<glyph glyph-name="job" unicode="&#120;" d="M311 215l189 0 0-167c0-12-10-22-22-22l-444 0c-12 0-22 10-22 22l0 167 189 0 0-5 7 0 0-44c0-12 10-23 22-23l48 0c12 0 22 11 22 23l0 44 9 0 0 5z m201 176l0-132c0-12-10-22-22-22l-468 0c-12 2-22 10-22 22l0 132c0 12 10 22 22 22l145 0 0 41c0 17 14 31 31 31l118 0c17 0 30-14 30-31l0-43 146 0c10 2 20-8 20-20z m-208 51l-94 0 0-31 94 0z"/>
<glyph glyph-name="list" unicode="&#121;" d="M256 512c-22 0-43-15-48-36l-49 0 0-61 194 0 0 61-49 0c-7 21-26 36-48 36z m-195-512l391 0 0 451-78 0 0-43c0-7-5-12-12-12l-210 0c-7 0-12 5-12 12l0 43-79 0z m86 329c13 0 24-10 24-24 0-13-11-23-24-23-14 0-24 10-24 23-2 12 10 24 24 24z m77-12l145 0c5 0 10-5 10-12 0-6-5-11-10-11l-145 0c-6 0-11 5-11 11 0 7 5 12 11 12z m-77-85c13 0 24-10 24-24 0-13-11-24-24-24-14 0-24 11-24 24 0 14 10 24 24 24z m77-12l145 0c5 0 10-5 10-12 0-7-5-12-10-12l-145 0c-6 0-11 5-11 12 0 5 5 12 11 12z m-77-85c13 0 24-10 24-24 0-14-11-26-24-26-14 0-24 11-24 24 0 14 10 26 24 26z m77-14l145 0c5 0 10-5 10-12 0-7-5-12-10-12l-145 0c-6 0-11 5-11 12 0 7 5 12 11 12z"/>
<glyph glyph-name="map" unicode="&#65;" d="M437 448l-4 0-113-45-128 45-119-41c-5-2-9-4-9-10l0-322c0-7 4-11 11-11l4 0 113 45 128-45 119 41c5 2 9 6 9 10l0 322c0 7-4 11-11 11z m-117-341l-128 44 0 254 128-44z"/>
<glyph glyph-name="note" unicode="&#66;" d="M225 469c0-23-19-42-42-42-24 0-43 19-43 42 0 24 19 43 43 43 23 0 42-19 42-43z m24 0c0-13-3-27-12-37l33-33c5-5 5-12 0-17-5-5-12-5-17 0l-33 33c-12-7-24-12-37-12-38 0-67 30-67 66l-55 0 0-469 233 0 0 147c0 7 5 12 10 12l147 0 0 310z m68-457l122 123-122 0z"/>
<glyph glyph-name="opps" unicode="&#67;" d="M358 451c0-6-1-9-5-12l-66-46c-5-4-11-4-16-2-5 2-8 7-8 12l0 29c-2 0-4 0-5 0-103 0-186-79-193-179-7-101 66-190 167-204 101-13 195 53 215 152 2 9 7 16 16 19 8 4 17 2 23-5 7-5 9-15 7-24-25-123-141-205-266-188-125 17-215 128-207 253 9 125 113 222 239 222 2 0 4 0 6 0l0 20c0 5 3 11 8 12 3 2 9 2 14-1l66-48c2-2 5-5 5-10z m-13-125c-22 22-55 36-87 36-69 0-123-55-123-121 0-67 54-122 123-122 68 0 123 55 123 122 0 30-12 61-36 85z m-87-14c7 0 13-8 13-18l-1-62c0-10-5-19-11-19-5 0-10 9-10 19l-2 62c-3 10 4 18 11 18z m0-143c-11 0-16 7-16 17 0 10 7 17 16 17 10 0 15-7 15-17 0-10-5-17-15-17z m213 181c0-13-11-24-24-24-13 0-24 11-24 24 0 13 11 24 24 24 13 0 24-11 24-24z m-49 56c0-13-11-24-24-24-14 0-24 11-24 24 0 13 10 24 24 24 13 0 24-11 24-24z m70-128c0-13-11-24-24-24-14 0-24 11-24 24 0 13 10 24 24 24 13 0 24-11 24-24z"/>
<glyph glyph-name="personal" unicode="&#68;" d="M307 222c0 10 5 19 16 24 46 24 76 71 76 128-1 73-61 135-134 138-82 3-149-61-149-142 0-54 31-100 77-124 8-5 15-14 15-24 0-12-7-22-19-26-85-27-148-104-158-196 0 0 457 0 455 0-8 92-73 167-158 196-14 4-21 14-21 26z"/>
<glyph glyph-name="question" unicode="&#69;" d="M427 512l-342 0c-26 0-48-22-48-49l0-341c0-27 22-49 48-49l98 0 73-73 73 73 98 0c26 0 48 22 48 49l0 341c0 27-22 49-48 49z m-147-390l-48 0 0 49 48 0z m52 190l-22-22c-20-19-30-34-30-71l-48 0 0 13c0 26 9 51 29 68l29 32c10 9 15 22 15 34 0 27-22 48-49 48-27 0-49-21-49-48l-49 0c0 53 44 97 98 97 54 0 98-44 98-97 0-22-10-42-22-54z"/>
<glyph glyph-name="search" unicode="&#70;" d="M337 209l-17 0-9 4c22 24 35 56 35 90 0 77-62 139-139 139-77 0-139-62-139-139 0-77 62-139 139-139 34 0 66 13 90 34l6-6 0-17 107-107 32 32z m-128 0c-53 0-96 43-96 96 0 53 43 96 96 96 53 0 96-43 96-96 0-53-45-96-96-96z"/>
<glyph glyph-name="security" unicode="&#71;" d="M358 288l-7 0 0 70c0 53-42 95-95 95-53 0-95-42-95-95l0-70-7 0c-21 0-38-18-38-39l0-152c0-21 17-38 38-38l203 0c21 0 38 17 38 38l0 152c0 21-16 39-37 39z m-166 70c0 36 29 65 64 65 35 0 64-29 64-65l0-70-128 0z m64-227c-21 0-37 16-38 37 0 21 16 37 37 38 0 0 1 0 1 0 21 0 37-17 37-38-2-20-17-35-37-37z"/>
<glyph glyph-name="service" unicode="&#72;" d="M91 122l61 39c-1 11 0 21 3 31 4 14 10 19 9 21-1 2-3 21-4 26-1 4-2 6-2 6l-8 16c-3 8-6 8 0 12l21 0 22-28 14-21 25 4 37 20c0 0 40 19 54 25l34 0c1-6 0-12-5-16-4-4-22-12-30-18-8-7-57-58-57-58l-33-26-30-24-51-72c-25 9-53 38-60 63z m164 331c9 0 17-8 17-17 0-9-8-17-17-17-10 0-17 8-17 17 0 9 7 17 17 17z m0-34c64 0 118-49 123-110l-247 0c6 61 59 110 124 110z m-157-139c-5 0-9 5-9 10 0 5 4 9 9 9l314 0c5 0 11-4 11-10 0-7-4-11-11-11l-314 0z"/>
<glyph glyph-name="shape" unicode="&#73;" d="M457 366l-1 2c-1 3-2 6-5 8l-128 130c-1 1-3 2-5 4l-8 2-202 0c-34 0-60-26-60-59l0-393c0-33 26-60 59-60l290 0c33 0 60 26 60 59z m-132 77l66-68-50 0c-9 0-17 7-17 17l0 51z m-213-77c0 40 34 74 75 74 42 0 75-34 75-74 0-28-24-73-75-136-50 63-75 108-75 136z m288-300l-82 0 0 20 82 0z m0 52l-152 0 0 20 152 0z m0 50l-152 0 0 20 152 0z m-210 233c-19 0-34-15-34-33 0-18 15-33 34-33 18 0 33 15 33 33 0 18-15 33-33 33z"/>
<glyph glyph-name="shape-1" unicode="&#74;" d="M458 366c-2 5-2 7-5 9l-129 130c-2 2-2 2-5 5l-7 2-202 0c-32 0-59-27-59-59l0-392c0-32 27-59 59-59l290 0c32 0 58 27 58 59z m-134 78l66-69-49 0c-9 0-17 8-17 18z m-229-229c5 41 32 75 71 87 5 3 10 8 10 13 0 4-3 9-8 9-22 10-34 32-34 56 0 34 29 64 63 64 0 0 3 0 3 0 34-3 58-30 61-61 0-25-12-47-34-59-5-2-8-7-8-9 0-5 3-10 8-13 39-12 66-46 70-87 3 0-202 0-202 0z m305-149l-81 0 0 19 81 0z m0 53l-151 0 0 20 151 0z m0 49l-151 0 0 20 151 0z"/>
<glyph glyph-name="shape-2" unicode="&#75;" d="M398 404l-358 0c-22 0-40-18-40-40l0-212c0-22 18-40 40-40l358 0c22 0 41 18 41 40l0 212c0 22-18 40-41 40z m-246-182l-86 0 0 14 87 0 0-14z m76 43l-162 0 0 15 162 0 0-15z m0 37l-162 0 0 15 162 0 0-15z m20-124c3 26 21 48 46 56 3 1 5 4 5 7 0 3-1 6-4 7-13 7-22 20-22 36 0 23 19 42 43 41 21-2 38-19 39-40 0-16-8-30-22-37-3-1-4-4-4-7 0-3 2-7 5-7 25-8 43-30 46-57-1 0-132 1-132 1z m247 168l-37 10 0-188c0-2 0-4 0-6 11-1 22 6 24 17l29 138c4 12-4 25-16 29z"/>
<glyph glyph-name="shape-3" unicode="&#76;" d="M508 84l-225 377c-5 9-16 14-27 14-11 0-22-5-27-14l-225-375c-6-9-6-22 0-31 5-9 16-17 27-17l450 0c11 0 22 6 27 17 6 7 6 20 0 29z m-252 262c13 0 24-8 24-21 0-40-6-96-6-137 0-11-11-14-18-14-11 0-20 3-20 14 0 41-6 97-6 137 2 13 13 21 26 21z m0-245c-15 0-26 11-26 25 0 15 11 26 26 26 13 0 26-11 26-26 0-14-11-25-26-25z"/>
<glyph glyph-name="today" unicode="&#77;" d="M405 427l-21 0 0 42-43 0 0-42-170 0 0 42-43 0 0-42-21 0c-24 0-43-20-43-43l0-299c0-23 19-42 43-42l298 0c24 0 43 19 43 42l0 299c0 23-19 43-43 43z m0-342l-298 0 0 235 298 0z m-256 192l107 0 0-106-107 0z"/>
<glyph glyph-name="twins" unicode="&#78;" d="M163 233c-54 0-163-28-163-82l0-58 326 0 0 58c0 54-110 82-163 82m186 0c-7 0-14 0-23-3 28-18 46-46 46-79l0-58 140 0 0 58c0 54-109 82-163 82m-186 186c-40 0-70-30-70-70 0-39 30-70 70-70 39 0 70 31 70 70 0 40-31 70-70 70m186 0c-39 0-70-30-70-70 0-39 31-70 70-70 40 0 70 31 70 70 0 40-30 70-70 70"/>
<glyph glyph-name="angle-down" unicode="&#79;" d="M399 302c0-3-1-5-3-7l-133-133c-2-2-5-3-7-3-2 0-5 1-7 3l-133 133c-2 2-3 4-3 7 0 2 1 4 3 6l15 15c1 1 4 2 6 2 3 0 5-1 7-2l112-113 112 113c2 1 4 2 7 2 2 0 5-1 6-2l15-15c2-2 3-4 3-6z"/>
<glyph glyph-name="angle-left" unicode="&#80;" d="M344 357c0-3-1-5-3-7l-112-112 112-113c2-1 3-4 3-6 0-3-1-5-3-7l-14-14c-2-2-5-3-7-3-2 0-5 1-7 3l-133 133c-2 2-3 4-3 7 0 2 1 4 3 6l133 133c2 2 5 3 7 3 2 0 5-1 7-3l14-14c2-2 3-4 3-6z"/>
<glyph glyph-name="angle-right" unicode="&#81;" d="M335 238c0-3-1-5-3-7l-133-133c-2-2-5-3-7-3-2 0-5 1-7 3l-14 14c-2 2-3 4-3 7 0 2 1 5 3 6l112 113-112 112c-2 2-3 4-3 7 0 2 1 4 3 6l14 14c2 2 5 3 7 3 2 0 5-1 7-3l133-133c2-2 3-4 3-6z"/>
<glyph glyph-name="angle-up" unicode="&#82;" d="M399 174c0-3-1-5-3-7l-15-14c-1-2-4-3-6-3-3 0-5 1-7 3l-112 112-112-112c-2-2-4-3-7-3-2 0-5 1-6 3l-15 14c-2 2-3 4-3 7 0 2 1 4 3 6l133 133c2 2 5 3 7 3 2 0 5-1 7-3l133-133c2-2 3-4 3-6z"/>
<glyph glyph-name="ok" unicode="&#103;" d="M461 444c-87-89-190-190-280-280l-135 112-46-54 160-133 26-21 24 24c95 96 208 208 304 304z"/>
<glyph glyph-name="check-bold" unicode="&#83;" d="M171 151l-120 119-40-68 160-159 341 341-40 68z"/>
<glyph glyph-name="done" unicode="&#84;" d="M192 166l-90 90-29-30 119-119 256 256-30 30z"/>
<glyph glyph-name="logout" unicode="&#122;" d="M329 416c26 0 48 22 48 48 0 27-22 48-48 48-27 0-48-21-48-48 0-26 21-48 48-48z m-85-330l23 105 51-48 0-143 48 0 0 179-51 48 15 72c30-36 78-60 130-60l0 48c-45 0-83 24-102 57l-24 38c-9 15-24 24-40 24-7 0-12-2-19-2l-124-54 0-112 47 0 0 81 43 17-38-193-117 24-10-48z"/>
<glyph glyph-name="notifications" unicode="&#85;" d="M414 158l0 131c0 81-44 148-119 165l0 19c0 21-17 39-39 39-22 0-39-18-39-39l0-18c-75-17-119-85-119-165l0-132-52-52 0-27 420 0 0 27z m-158-158c29 0 53 24 53 53l-106 0c0-29 24-53 53-53z"/>
<glyph glyph-name="logout-1" unicode="&#86;" d="M244 464c0 27-22 48-48 48-27 0-48-21-48-48 0-26 21-48 48-48 26 0 48 22 48 48z m204-345l-9 48-117-24-38 193 42-17 0-81 48 0 0 112-125 53c-7 0-12 2-19 2-16 0-31-9-40-24l-24-38c-19-33-57-57-102-57l0-48c52 0 100 24 131 60l14-72-50-48 0-178 48 0 0 143 50 47 24-105z"/>
<glyph glyph-name="logo-close" unicode="&#87;" d="M256 0c-141 0-256 115-256 256 0 141 115 256 256 256 141 0 256-115 256-256 0-141-115-256-256-256z m0 503c-137 0-247-110-247-247 0-137 110-247 247-247 137 0 247 110 247 247 0 137-110 247-247 247z m90-175l-18 18-72-72-72 72-18-18 72-72-72-72 18-18 72 72 72-72 18 18-72 72z"/>
<glyph glyph-name="cloud-upload" unicode="&#88;" d="M414 299c-15 72-79 128-158 128-62 0-115-34-141-86-66-8-115-62-115-128 0-70 58-128 128-128l277 0c60 0 107 47 107 107 0 55-45 102-98 107z m-115-64l0-86-86 0 0 86-64 0 107 106 107-106z"/>
<glyph glyph-name="eye" unicode="&#89;" d="M256 405c-107 0-198-66-235-160 37-93 128-160 235-160 107 0 198 67 235 160-37 94-128 160-235 160z m0-266c-59 0-107 47-107 106 0 59 48 107 107 107 59 0 107-48 107-107 0-59-48-106-107-106z m0 170c-35 0-64-28-64-64 0-35 29-64 64-64 35 0 64 29 64 64 0 36-29 64-64 64z"/>
</font>
</defs>
</svg>
